<svg width="31" height="21" viewBox="0 0 31 21" fill="none" xmlns="http://www.w3.org/2000/svg">
<path d="M29.972 4.0253L16.5153 19.9013C16.3551 20.0897 16.1811 20.2241 15.9935 20.3043C15.8058 20.3846 15.6045 20.425 15.3895 20.4258C15.1745 20.4277 14.9727 20.3903 14.7842 20.3135C14.5956 20.2367 14.4202 20.1062 14.258 19.922L0.586633 4.29472C0.208001 3.86191 0.0168746 3.31832 0.013254 2.66395C0.00963335 2.00957 0.208076 1.44683 0.608581 0.975721C1.00909 0.504614 1.47807 0.266597 2.01552 0.261669C2.55298 0.256742 3.02454 0.486136 3.43022 0.949852L15.3571 14.5831L27.132 0.732548C27.5058 0.29285 27.9684 0.0704703 28.5198 0.0654147C29.0713 0.0603591 29.5493 0.289694 29.9539 0.75342C30.3596 1.21714 30.5641 1.7606 30.5676 2.38382C30.571 3.00704 30.3725 3.5542 29.972 4.0253Z" fill="#95A2CD"/>
<path d="M28.8307 3.0561L28.8293 3.05778L15.3811 18.9236L1.71709 3.30468C1.60692 3.17876 1.51511 2.997 1.51319 2.6502C1.51143 2.33194 1.59754 2.12412 1.74988 1.94492C1.90617 1.76107 1.9824 1.76146 2.01868 1.76164C2.02049 1.76165 2.0222 1.76166 2.02382 1.76165C2.02544 1.76163 2.02715 1.76159 2.02896 1.76155C2.06524 1.7607 2.14145 1.75892 2.29977 1.93989L14.2267 15.5731L15.3698 16.8799L16.4984 15.5523L28.2733 1.70175C28.3784 1.57808 28.4348 1.56625 28.5281 1.56539L28.5288 1.56539C28.5885 1.56484 28.667 1.56411 28.8221 1.74196L28.8234 1.74345C28.9902 1.93411 29.0662 2.13014 29.0676 2.39757C29.0691 2.665 28.9954 2.8624 28.8307 3.0561Z" stroke="#D8D5D5" stroke-opacity="0.33" stroke-width="3"/>
</svg>
