<svg width="77" height="77" viewBox="0 0 77 77" fill="none" xmlns="http://www.w3.org/2000/svg">
<path d="M7.37501 48.875H0.458344V7.37498C0.458344 5.54057 1.18706 3.78128 2.48419 2.48416C3.78132 1.18703 5.5406 0.458313 7.37501 0.458313H62.7083V7.37498H7.37501V48.875ZM38.5 76.5416C37.5828 76.5416 36.7032 76.1773 36.0546 75.5287C35.406 74.8802 35.0417 74.0005 35.0417 73.0833V62.7083H21.2083C19.3739 62.7083 17.6146 61.9796 16.3175 60.6825C15.0204 59.3853 14.2917 57.6261 14.2917 55.7916V21.2083C14.2917 19.3739 15.0204 17.6146 16.3175 16.3175C17.6146 15.0204 19.3739 14.2916 21.2083 14.2916H69.625C71.4594 14.2916 73.2187 15.0204 74.5158 16.3175C75.813 17.6146 76.5417 19.3739 76.5417 21.2083V55.7916C76.5417 57.6261 75.813 59.3853 74.5158 60.6825C73.2187 61.9796 71.4594 62.7083 69.625 62.7083H55.4458L42.65 75.5387C41.9583 76.1612 41.1283 76.5416 40.2292 76.5416H38.5ZM28.125 28.125V35.0416H62.7083V28.125H28.125ZM28.125 41.9583V48.875H55.7917V41.9583H28.125Z" fill="#009EEB"/>
</svg>
