<svg width="40" height="41" viewBox="0 0 40 41" fill="none" xmlns="http://www.w3.org/2000/svg">
<path fill-rule="evenodd" clip-rule="evenodd" d="M38.3333 20.5C38.3333 10.3747 30.1252 2.16663 20 2.16663C9.87478 2.16663 1.66667 10.3747 1.66667 20.5C1.66667 30.6252 9.87478 38.8333 20 38.8333C30.1252 38.8333 38.3333 30.6252 38.3333 20.5ZM33.9295 14.9242C32.4072 11.1246 29.3753 8.09279 25.5758 6.57049C26.4673 8.29141 27.1666 10.437 27.6379 12.8621C30.0629 13.3334 32.2086 14.0327 33.9295 14.9242ZM12.3621 12.8621C12.8334 10.437 13.5327 8.29141 14.4242 6.57049C10.6247 8.09279 7.59283 11.1246 6.07053 14.9242C7.79145 14.0327 9.93706 13.3334 12.3621 12.8621ZM5 20.5C5 19.0012 7.71447 17.375 11.8575 16.3969C11.7317 17.718 11.6667 19.0916 11.6667 20.5C11.6667 21.9083 11.7317 23.2819 11.8575 24.603C7.71447 23.625 5 21.9987 5 20.5ZM6.07053 26.0758C7.79145 26.9672 9.93706 27.6665 12.3621 28.1379C12.8334 30.5629 13.5327 32.7085 14.4242 34.4294C10.6247 32.9071 7.59283 29.8753 6.07053 26.0758ZM27.6379 28.1379C27.1666 30.5629 26.4673 32.7085 25.5758 34.4294C29.3753 32.9071 32.4072 29.8753 33.9295 26.0758C32.2086 26.9672 30.0629 27.6665 27.6379 28.1379ZM28.3333 20.5C28.3333 21.9083 28.2683 23.2819 28.1425 24.603C32.2855 23.625 35 21.9987 35 20.5C35 19.0012 32.2855 17.375 28.1425 16.3969C28.2683 17.718 28.3333 19.0916 28.3333 20.5ZM15 20.5C15 18.8495 15.1035 17.2661 15.2877 15.7877C16.7662 15.6035 18.3496 15.5 20 15.5C21.6504 15.5 23.2338 15.6035 24.7123 15.7877C24.8965 17.2661 25 18.8495 25 20.5C25 22.1504 24.8965 23.7338 24.7123 25.2123C23.2338 25.3964 21.6504 25.5 20 25.5C18.3496 25.5 16.7662 25.3964 15.2877 25.2123C15.1035 23.7338 15 22.1504 15 20.5ZM15.897 28.6425C16.875 32.7855 18.5013 35.5 20 35.5C21.4987 35.5 23.125 32.7855 24.103 28.6425C22.782 28.7682 21.4083 28.8333 20 28.8333C18.5917 28.8333 17.218 28.7682 15.897 28.6425ZM20 5.49996C18.5013 5.49996 16.875 8.21443 15.897 12.3574C17.218 12.2317 18.5917 12.1666 20 12.1666C21.4083 12.1666 22.782 12.2317 24.103 12.3574C23.125 8.21443 21.4987 5.49996 20 5.49996Z" fill="#5D6AFB"/>
</svg>
