<svg width="15" height="15" viewBox="0 0 15 15" fill="none" xmlns="http://www.w3.org/2000/svg">
<path d="M12.2744 9.258C11.7684 8.75849 11.1368 8.75849 10.634 9.258C10.2505 9.63828 9.86705 10.0186 9.49 10.4053C9.38687 10.5116 9.29986 10.5342 9.17418 10.4633C8.92603 10.3279 8.66177 10.2184 8.4233 10.0701C7.31148 9.37079 6.38012 8.47167 5.55512 7.45975C5.14584 6.95702 4.78168 6.41883 4.52709 5.81297C4.47553 5.69051 4.4852 5.60994 4.5851 5.51004C4.9686 5.13943 5.34243 4.75916 5.71948 4.37888C6.24477 3.85037 6.24477 3.23161 5.71626 2.69987C5.41655 2.39694 5.11684 2.10046 4.81713 1.79753C4.50776 1.48815 4.2016 1.17555 3.889 0.869399C3.38305 0.376331 2.7514 0.376331 2.24867 0.872622C1.86195 1.2529 1.49134 1.64284 1.09818 2.01667C0.734015 2.36149 0.550323 2.78366 0.511651 3.27673C0.45042 4.07918 0.647003 4.8365 0.924152 5.57449C1.49134 7.10204 2.35502 8.45878 3.40238 9.70273C4.81713 11.385 6.50581 12.7159 8.4813 13.6763C9.37076 14.1081 10.2924 14.4401 11.2947 14.4948C11.9843 14.5335 12.5838 14.3595 13.0639 13.8213C13.3926 13.4539 13.7633 13.1188 14.1113 12.7675C14.6269 12.2454 14.6301 11.6138 14.1177 11.0981C13.5054 10.4826 12.8899 9.87031 12.2744 9.258Z" fill="#929AA2"/>
</svg>
