<svg width="17" height="15" viewBox="0 0 17 15" fill="none" xmlns="http://www.w3.org/2000/svg">
<path d="M1.16849 6.52698C5.73275 4.55143 8.7756 3.24891 10.297 2.61964C14.646 0.822746 15.5486 0.510665 16.1381 0.500092C16.2677 0.498026 16.5564 0.529866 16.7447 0.681167C16.9013 0.80877 16.9453 0.981339 16.9673 1.1025C16.9869 1.22354 17.0138 1.49941 16.9918 1.71475C16.7569 4.17446 15.737 10.1434 15.2184 12.8984C15.0007 14.0641 14.5678 14.4549 14.1495 14.4931C13.2396 14.5762 12.5498 13.8961 11.6692 13.3228C10.2921 12.4252 9.51429 11.8666 8.17632 10.9909C6.63044 9.97883 7.63331 9.42247 8.51387 8.51345C8.7438 8.2755 12.7504 4.65522 12.8262 4.32685C12.836 4.28578 12.8458 4.13265 12.7528 4.05196C12.6623 3.97102 12.5278 3.99873 12.4299 4.0206C12.2905 4.05172 10.0916 5.4974 5.8257 8.35741C5.20197 8.78373 4.63694 8.99154 4.12817 8.9806C3.57048 8.96869 2.49423 8.66658 1.69438 8.40845C0.715979 8.09176 -0.0642998 7.92429 0.00418858 7.38641C0.0384328 7.10642 0.427349 6.81986 1.16849 6.52698Z" fill="white"/>
</svg>
