<svg width="32" height="32" viewBox="0 0 32 32" fill="none" xmlns="http://www.w3.org/2000/svg"><path d="M16 32c8.836 0 16-7.163 16-16S24.835 0 16 0C7.163 0 0 7.163 0 16s7.163 16 16 16z" fill="#4D76A1"/><path fill-rule="evenodd" clip-rule="evenodd" d="M15.396 23.018h1.255a1.06 1.06 0 00.573-.25.919.919 0 00.173-.552s-.024-1.685.758-1.93c.782-.244 1.76 1.629 2.81 2.35.395.313.894.465 1.397.425l2.806-.04s1.468-.09.772-1.244a9.377 9.377 0 00-2.086-2.414c-1.76-1.632-1.524-1.368.593-4.193 1.29-1.72 1.807-2.77 1.646-3.22-.154-.428-1.103-.315-1.103-.315l-3.16.02a.716.716 0 00-.408.074.886.886 0 00-.279.339 18.289 18.289 0 01-1.166 2.463c-1.41 2.39-1.97 2.515-2.2 2.367-.534-.346-.4-1.389-.4-2.13 0-2.315.35-3.28-.684-3.53a5.394 5.394 0 00-1.475-.148 6.81 6.81 0 00-2.621.268c-.36.176-.637.568-.467.593.358.033.692.2.932.47.218.444.325.934.312 1.429 0 0 .186 2.725-.434 3.063-.426.233-1.01-.241-2.264-2.409a20.15 20.15 0 01-1.128-2.336.939.939 0 00-.26-.352 1.308 1.308 0 00-.486-.196l-3.002.02s-.45.012-.616.208c-.149.175-.012.535-.012.535s2.35 5.499 5.01 8.27a7.207 7.207 0 005.211 2.374l.003-.01z" fill="#fff"/></svg>