<svg width="17" height="13" viewBox="0 0 17 13" fill="none" xmlns="http://www.w3.org/2000/svg">
<path d="M16.4997 10.4999C16.4997 10.8507 16.401 11.1759 16.243 11.462L11.1911 5.80966L16.1882 1.43765C16.3826 1.74614 16.4997 2.10851 16.4997 2.50009V10.4999ZM8.49969 6.83595L15.453 0.751998C15.1676 0.595793 14.8463 0.5 14.4997 0.5H2.49965C2.15262 0.5 1.83121 0.595793 1.54703 0.751998L8.49969 6.83595ZM10.4382 6.46788L8.82871 7.87705C8.73457 7.95906 8.61734 8.00002 8.49969 8.00002C8.38196 8.00002 8.26474 7.95906 8.17059 7.87705L6.56073 6.46782L1.44497 12.1924C1.75161 12.3848 2.11097 12.5 2.49962 12.5H14.4997C14.8883 12.5 15.2478 12.3848 15.5544 12.1924L10.4382 6.46788ZM0.811216 1.43762C0.616859 1.74611 0.499664 2.10847 0.499664 2.50009V10.5C0.499664 10.8507 0.597865 11.1759 0.756509 11.462L5.80778 5.8087L0.811216 1.43762Z" fill="#929AA2"/>
</svg>
