<svg width="34" height="35" viewBox="0 0 34 35" fill="none" xmlns="http://www.w3.org/2000/svg">
<path fill-rule="evenodd" clip-rule="evenodd" d="M6.16174 9.16671C5.61474 8.27233 5.33334 7.17147 5.33334 5.83337C5.33334 3.19518 7.31726 0.833374 10.3333 0.833374C13.3533 0.833374 15.7888 2.85609 17 6.02309C18.2112 2.85609 20.6467 0.833374 23.6667 0.833374C26.6828 0.833374 28.6667 3.19518 28.6667 5.83337C28.6667 7.17147 28.3853 8.27233 27.8383 9.16671H30.3333C32.1743 9.16671 33.6667 10.6591 33.6667 12.5V15.8334C33.6667 17.6743 32.1743 19.1667 30.3333 19.1667V30.8334C30.3333 32.6743 28.841 34.1667 27 34.1667H7.00001C5.15906 34.1667 3.66668 32.6743 3.66668 30.8334V19.1667C1.82573 19.1667 0.333344 17.6743 0.333344 15.8334V12.5C0.333344 10.6591 1.82573 9.16671 3.66668 9.16671H6.16174ZM15.3333 12.5H3.66668V15.8334H15.3333V12.5ZM30.3333 15.8334H18.6667V12.5H30.3333V15.8334ZM15.3333 30.8334V19.1667H7.00001V30.8334H15.3333ZM27 30.8334H18.6667V19.1667H27V30.8334ZM10.3333 4.16671C9.29942 4.16671 8.66668 4.91998 8.66668 5.83337C8.66668 7.92209 10.3617 8.91524 14.3824 9.12419C13.9355 6.01937 12.2703 4.16671 10.3333 4.16671ZM19.5 9.12419C19.9469 6.01937 21.6121 4.16671 23.549 4.16671C24.583 4.16671 25.2157 4.91998 25.2157 5.83337C25.2157 7.92209 23.5207 8.91524 19.5 9.12419Z" fill="#5D6AFB"/>
</svg>
