<svg width="34" height="35" viewBox="0 0 34 35" fill="none" xmlns="http://www.w3.org/2000/svg">
<path fill-rule="evenodd" clip-rule="evenodd" d="M7.11875 4.17094C6.82275 4.1703 6.53741 4.20381 6.26626 4.2675C5.89457 3.44826 5.40359 2.71328 4.84518 2.15486C3.89739 1.20707 2.40259 0.833374 0.333333 0.833374V4.16671C1.59741 4.16671 2.32483 4.34856 2.48816 4.51189C3.11811 5.14184 3.66667 6.42181 3.66667 7.50004L3.68342 7.73574L5.31653 19.1676C2.58393 19.3093 0.466996 21.4314 0.335381 24.0841L0.333333 25.8334C0.494702 28.5733 2.60459 30.6809 5.23873 30.8307L5.6171 30.8313C6.3029 32.7744 8.15551 34.1667 10.3333 34.1667C12.5104 34.1667 14.3624 32.7754 15.0488 30.8334H18.9512C19.6376 32.7754 21.4896 34.1667 23.6667 34.1667C26.4281 34.1667 28.6667 31.9281 28.6667 29.1667C28.6667 26.4053 26.4281 24.1667 23.6667 24.1667C21.4896 24.1667 19.6376 25.5581 18.9512 27.5H15.0488C14.3624 25.5581 12.5104 24.1667 10.3333 24.1667C8.1563 24.1667 6.30424 25.5581 5.61784 27.5H5.33333C4.48335 27.449 3.72089 26.6874 3.66368 25.7336L3.66667 24.1667C3.71161 23.3022 4.46885 22.545 5.41592 22.498L8.70615 22.4988L8.73 22.5H25.5281L25.7741 22.422C27.0378 22.021 28.0494 21.0694 28.5284 19.8376L28.7039 19.4901L28.7088 19.4804L28.7137 19.4708L28.7192 19.4598C28.9402 19.0223 28.9474 19.008 29.2744 18.3598C29.8646 17.1899 30.4548 16.018 31.03 14.873C32.4387 12.0685 33.3247 10.2861 33.5209 9.84847C34.5284 7.60079 32.4874 5.87081 30.4012 5.83397L7.11875 4.17094ZM24.949 19.1667H8.85479C8.74777 19.137 8.66622 19.0463 8.65026 18.9334L7.0171 7.50126L30.1556 9.15825C29.7508 9.98391 29.0148 11.4586 28.0513 13.3769L28.0271 13.4249C27.4771 14.5198 26.8877 15.6901 26.2983 16.8585L25.9404 17.5677L25.7286 17.9873L25.5126 18.4148L25.4313 18.6037C25.3442 18.8463 25.1714 19.0456 24.949 19.1667ZM23.6667 30.8334C24.5871 30.8334 25.3333 30.0872 25.3333 29.1667C25.3333 28.2462 24.5871 27.5 23.6667 27.5C22.7462 27.5 22 28.2462 22 29.1667C22 30.0872 22.7462 30.8334 23.6667 30.8334ZM12 29.1667C12 30.0872 11.2538 30.8334 10.3333 30.8334C9.41286 30.8334 8.66667 30.0872 8.66667 29.1667C8.66667 28.2462 9.41286 27.5 10.3333 27.5C11.2538 27.5 12 28.2462 12 29.1667Z" fill="#5D6AFB"/>
</svg>
