<svg width="34" height="35" viewBox="0 0 34 35" fill="none" xmlns="http://www.w3.org/2000/svg">
<path fill-rule="evenodd" clip-rule="evenodd" d="M10.3333 7.50004H7.00001V5.83337H3.66668V10.8334H30.3333V5.83337H27V7.50004H23.6667V5.83337H10.3333V7.50004ZM30.3333 14.1667H3.66668V30.8334H30.3333V14.1667ZM23.6667 2.50004H10.3333V0.833374H7.00001V2.50004H3.66668C1.82573 2.50004 0.333344 3.99242 0.333344 5.83337V30.8334C0.333344 32.6743 1.82573 34.1667 3.66668 34.1667H30.3333C32.1743 34.1667 33.6667 32.6743 33.6667 30.8334V5.83337C33.6667 3.99242 32.1743 2.50004 30.3333 2.50004H27V0.833374H23.6667V2.50004ZM8.66668 20.8334V17.5H12V20.8334H8.66668ZM15.3333 20.8334H18.6667V17.5H15.3333V20.8334ZM22 20.8334V17.5H25.3333V20.8334H22ZM8.66668 24.1667V27.5H12V24.1667H8.66668ZM18.6667 27.5H15.3333V24.1667H18.6667V27.5Z" fill="#5D6AFB"/>
</svg>
