<svg width="24" height="25" viewBox="0 0 24 25" fill="none" xmlns="http://www.w3.org/2000/svg">
<path d="M11.4 0.5C9.47299 0.528 5.333 0.844 3.02 2.967C1.302 4.687 0.695996 7.2 0.632996 10.317C0.569996 13.433 0.487996 19.276 6.12 20.86H6.123L6.119 23.276C6.119 23.276 6.082 24.253 6.729 24.453C7.506 24.695 7.963 23.953 8.70899 23.151C9.11599 22.711 9.68099 22.067 10.106 21.571C13.956 21.897 16.918 21.155 17.256 21.046C18.032 20.794 22.432 20.23 23.148 14.389C23.888 8.369 22.788 4.559 20.808 2.843C20.212 2.293 17.802 0.543 12.433 0.52C12.433 0.52 12.038 0.495 11.396 0.503L11.4 0.5ZM11.458 2.193C12.003 2.189 12.338 2.21 12.338 2.21C16.88 2.23 19.055 3.598 19.56 4.056C21.235 5.491 22.09 8.924 21.466 13.953V13.955C20.862 18.833 17.292 19.139 16.634 19.35C16.354 19.44 13.752 20.087 10.481 19.874C10.481 19.874 8.045 22.814 7.284 23.578C7.164 23.698 7.024 23.745 6.932 23.722C6.802 23.689 6.766 23.534 6.767 23.308L6.787 19.29C2.025 17.97 2.302 12.998 2.357 10.395C2.411 7.791 2.9 5.657 4.353 4.222C6.313 2.449 9.827 2.204 11.463 2.192L11.458 2.193ZM11.838 4.795C11.7605 4.79891 11.6874 4.83233 11.6337 4.88841C11.58 4.94449 11.5498 5.01898 11.5493 5.09661C11.5488 5.17424 11.578 5.24912 11.6309 5.3059C11.6839 5.36269 11.7565 5.39707 11.834 5.402C13.458 5.412 14.78 5.939 15.862 6.994C16.935 8.04 17.482 9.462 17.495 11.328C17.497 11.495 17.635 11.628 17.802 11.628C17.8819 11.6269 17.9582 11.5945 18.0144 11.5376C18.0705 11.4807 18.102 11.4039 18.102 11.324C18.088 9.34 17.484 7.728 16.286 6.56C15.096 5.4 13.593 4.807 11.838 4.795ZM7.878 5.49C7.66539 5.46056 7.449 5.50166 7.262 5.607L7.252 5.609C6.822 5.856 6.436 6.171 6.106 6.541C6.104 6.545 6.1 6.545 6.098 6.549C5.831 6.872 5.678 7.187 5.638 7.497C5.63016 7.54323 5.62781 7.59022 5.631 7.637C5.631 7.773 5.653 7.907 5.696 8.037L5.709 8.047C5.844 8.527 6.182 9.323 6.914 10.651C7.334 11.419 7.817 12.151 8.36 12.837C8.63 13.181 8.91999 13.51 9.22999 13.821L9.362 13.953C9.672 14.261 10.002 14.553 10.346 14.823C11.0326 15.3661 11.7638 15.8502 12.532 16.27C13.86 17.003 14.658 17.34 15.136 17.476L15.146 17.49C15.32 17.5469 15.5041 17.5656 15.686 17.545C15.996 17.509 16.313 17.355 16.634 17.085C16.638 17.085 16.637 17.083 16.642 17.08C17.012 16.75 17.325 16.36 17.572 15.932L17.575 15.922C17.8 15.49 17.725 15.08 17.395 14.802C17.391 14.802 16.697 14.222 16.358 13.972C15.998 13.717 15.628 13.48 15.245 13.262C14.735 12.977 14.213 13.156 13.997 13.436L13.55 14C13.32 14.283 12.893 14.246 12.893 14.246C9.77299 13.45 8.93799 10.291 8.93799 10.291C8.93799 10.291 8.901 9.865 9.186 9.635L9.74899 9.187C10.026 8.972 10.205 8.45 9.91899 7.939C9.7018 7.55529 9.46481 7.18312 9.20899 6.824C8.94044 6.47257 8.6637 6.12748 8.379 5.789C8.25359 5.63196 8.07501 5.52631 7.877 5.492L7.878 5.49ZM12.368 6.37C12.2876 6.36761 12.2096 6.39725 12.1511 6.45238C12.0926 6.50752 12.0584 6.58364 12.056 6.664C12.0536 6.74436 12.0832 6.82238 12.1384 6.88089C12.1935 6.9394 12.2696 6.97361 12.35 6.976C13.51 7.061 14.367 7.442 14.995 8.126C15.625 8.814 15.925 9.65 15.901 10.696C15.9054 10.7729 15.9386 10.8453 15.994 10.8988C16.0494 10.9523 16.123 10.9829 16.2 10.9846C16.277 10.9862 16.3518 10.9588 16.4094 10.9077C16.4671 10.8566 16.5034 10.7856 16.511 10.709C16.536 9.534 16.177 8.516 15.444 7.715C14.704 6.905 13.667 6.462 12.394 6.369H12.37L12.368 6.37ZM12.831 8C12.754 8.00113 12.6803 8.03134 12.6246 8.08458C12.569 8.13781 12.5355 8.21013 12.531 8.287C12.523 8.454 12.651 8.597 12.819 8.607C13.342 8.635 13.694 8.782 13.932 9.029C14.172 9.274 14.32 9.649 14.348 10.193C14.3583 10.2684 14.3965 10.3372 14.455 10.3858C14.5136 10.4344 14.5883 10.4593 14.6643 10.4555C14.7403 10.4517 14.8121 10.4196 14.8655 10.3654C14.919 10.3113 14.9502 10.239 14.953 10.163C14.923 9.519 14.738 8.985 14.373 8.606C14.006 8.228 13.48 8.032 12.853 7.999H12.835L12.831 8Z" fill="white"/>
</svg>
