<svg width="21" height="17" viewBox="0 0 21 17" fill="none" xmlns="http://www.w3.org/2000/svg">
<path fill-rule="evenodd" clip-rule="evenodd" d="M20.5057 1.61111C20.6614 0.984444 20.5057 0.528889 19.8166 0.528889H17.5254C16.9475 0.528889 16.6806 0.927778 16.5248 1.35444C16.5248 1.35444 15.3462 4.99889 13.7003 7.36167C13.1666 8.045 12.922 8.27278 12.6328 8.27278C12.4771 8.27278 12.2767 8.045 12.2767 7.41889V1.58167C12.2767 0.841667 12.0991 0.5 11.6095 0.5H8.00626C7.65014 0.5 7.42788 0.841667 7.42788 1.18333C7.42788 1.895 8.25082 2.06611 8.33964 4.05889V8.38889C8.33964 9.32833 8.20839 9.5 7.91701 9.5C7.1387 9.5 5.24826 5.82722 4.11426 1.64222C3.89376 0.813333 3.66976 0.5 3.09138 0.5H0.778314C0.111125 0.5 0 0.898333 0 1.32556C0 2.09444 0.778314 5.96611 3.62513 11.0906C5.51557 14.5906 8.20664 16.4717 10.6308 16.4717C12.0991 16.4717 12.2767 16.0444 12.2767 15.3328V12.685C12.2767 11.8311 12.4101 11.6889 12.8774 11.6889C13.2108 11.6889 13.8115 11.9161 15.1681 13.5961C16.7248 15.5889 16.9916 16.5 17.8592 16.5H20.15C20.8172 16.5 21.1287 16.0728 20.9506 15.2472C20.7507 14.4217 19.9942 13.2261 19.0155 11.8028C18.4818 11.0061 17.6811 10.1233 17.4366 9.69611C17.1032 9.12667 17.192 8.89889 17.4366 8.38667C17.4143 8.38667 20.2169 3.31889 20.5057 1.60889" fill="white"/>
</svg>
